<?xml version="1.0" encoding="UTF-8"?>
<svg xmlns="http://www.w3.org/2000/svg" viewBox="0 0 24 24" width="24" height="24">
	<title>File Zen</title>
	<g stroke="white" stroke-width="1.6" stroke-linejoin="round" fill-opacity="0">
		<path d="M 8 11 A 17 12.6 0 0 1 12 5.5 A 17 12.6 0 0 1 16 9" transform="rotate(-30 12 21.217)">
		</path>
		<path d="M 8 9 A 17 12.6 0 0 1 12 5.5 A 17 12.6 0 0 1 16 11" transform="rotate(30 12 21.217)">
		</path>
		<path d="M 12 21.217 A 20 12.5 0 0 1 12 8.5 A 29 12.5 0 0 1 16 15.05" transform="rotate(-60 12 21.217)">
		</path>
		<path d="M 8 15.05 A 29 12.5 0 0 1 12 8.5 A 20 12.5 0 0 1 12 21.217" transform="rotate(60 12 21.217)">
		</path>		
		<path d="M 12 21.217 A 17 14.151 0 0 1 12 3.283 A 17 14.151 0 0 1 12 21.217"/>
	</g>
</svg>
